{
  "source": "C:\\Users\\Peter\\Desktop\\stuff\\MIUN\\quantitative_research\\video_compression\\videos\\BVI-HD\\BVI-HD_CDVL_videos\\ORIG\\Lightreef_1920x1080_30fps.mp4",
  "output": "C:\\Users\\Peter\\Desktop\\stuff\\MIUN\\quantitative_research\\video_compression\\compressed_videos\\BVI-HD\\vp9\\2.5\\Lightreef_1920x1080_30fps_vp9.webm",
  "codec": "vp9",
  "ok": "Input #0, mov,mp4,m4a,3gp,3g2,mj2, from 'C:\\Users\\Peter\\Desktop\\stuff\\MIUN\\quantitative_research\\video_compression\\videos\\BVI-HD\\BVI-HD_CDVL_videos\\ORIG\\Lightreef_1920x1080_30fps.mp4':\n  Metadata:\n    major_brand     : isom\n    minor_version   : 512\n    compatible_brands: isomiso2avc1mp41\n    encoder         : Lavf54.28.101\n  Duration: 00:00:05.00, start: 0.000000, bitrate: 361719 kb/s\n  Stream #0:0[0x1](und): Video: h264 (High 4:4:4 Predictive) (avc1 / 0x31637661), yuv420p(progressive), 1920x1080, 361715 kb/s, 30 fps, 30 tbr, 30 tbn (default)\n    Metadata:\n      handler_name    : VideoHandler\n      vendor_id       : [0][0][0][0]\n[out#0/webm @ 000001c3ffea0b80] Codec AVOption b:a (set bitrate (in bits/s)) has not been used for any stream. The most likely reason is either wrong type (e.g. a video option with no video streams) or that it is a private option of some decoder which was not actually used for any stream.\nStream mapping:\n  Stream #0:0 -> #0:0 (h264 (native) -> vp9 (libvpx-vp9))\nPress [q] to stop, [?] for help\n[libvpx-vp9 @ 000001c381f007c0] v1.15.2-100-g40561f514\nOutput #0, webm, to 'C:\\Users\\Peter\\Desktop\\stuff\\MIUN\\quantitative_research\\video_compression\\compressed_videos\\BVI-HD\\vp9\\2.5\\Lightreef_1920x1080_30fps_vp9.webm':\n  Metadata:\n    major_brand     : isom\n    minor_version   : 512\n    compatible_brands: isomiso2avc1mp41\n    encoder         : Lavf62.3.100\n  Stream #0:0(und): Video: vp9, yuv420p(tv, progressive), 1920x1080, q=2-31, 2500 kb/s, 30 fps, 1k tbn (default)\n    Metadata:\n      encoder         : Lavc62.11.100 libvpx-vp9\n      handler_name    : VideoHandler\n      vendor_id       : [0][0][0][0]\n    Side data:\n      cpb: bitrate max/min/avg: 0/0/0 buffer size: 2500000 vbv_delay: N/A\nframe=    0 fps=0.0 q=0.0 size=       0KiB time=N/A bitrate=N/A speed=N/A elapsed=0:00:00.51    \nframe=    0 fps=0.0 q=0.0 size=       0KiB time=N/A bitrate=N/A speed=N/A elapsed=0:00:01.04    \nframe=    4 fps=2.5 q=57.0 size=       1KiB time=00:00:00.13 bitrate=  38.0kbits/s speed=0.0825x elapsed=0:00:01.61    \nframe=    8 fps=3.7 q=55.0 size=       1KiB time=00:00:00.26 bitrate=  19.0kbits/s speed=0.123x elapsed=0:00:02.16    \nframe=   11 fps=4.1 q=38.0 size=       1KiB time=00:00:00.36 bitrate=  13.8kbits/s speed=0.136x elapsed=0:00:02.69    \nframe=   15 fps=4.6 q=53.0 size=       1KiB time=00:00:00.50 bitrate=  10.1kbits/s speed=0.155x elapsed=0:00:03.22    \nframe=   18 fps=4.8 q=53.0 size=       1KiB time=00:00:00.60 bitrate=   8.5kbits/s speed=0.16x elapsed=0:00:03.75    \nframe=   21 fps=4.9 q=41.0 size=       1KiB time=00:00:00.70 bitrate=   7.2kbits/s speed=0.164x elapsed=0:00:04.27    \nframe=   25 fps=5.2 q=52.0 size=       1KiB time=00:00:00.83 bitrate=   6.1kbits/s speed=0.174x elapsed=0:00:04.79    \nframe=   28 fps=5.3 q=53.0 size=       1KiB time=00:00:00.93 bitrate=   5.4kbits/s speed=0.175x elapsed=0:00:05.31    \nframe=   31 fps=5.3 q=41.0 size=       1KiB time=00:00:01.03 bitrate=   4.9kbits/s speed=0.177x elapsed=0:00:05.83    \nframe=   34 fps=5.3 q=52.0 size=       1KiB time=00:00:01.13 bitrate=   4.5kbits/s speed=0.178x elapsed=0:00:06.36    \nframe=   38 fps=5.5 q=52.0 size=       1KiB time=00:00:01.26 bitrate=   4.0kbits/s speed=0.184x elapsed=0:00:06.87    \nframe=   40 fps=5.4 q=53.0 size=       1KiB time=00:00:01.33 bitrate=   3.8kbits/s speed=0.18x elapsed=0:00:07.42    \nframe=   44 fps=5.5 q=51.0 size=       1KiB time=00:00:01.46 bitrate=   3.5kbits/s speed=0.184x elapsed=0:00:07.95    \nframe=   47 fps=5.5 q=51.0 size=       1KiB time=00:00:01.56 bitrate=   3.2kbits/s speed=0.184x elapsed=0:00:08.50    \nframe=   50 fps=5.5 q=52.0 size=       1KiB time=00:00:01.66 bitrate=   3.0kbits/s speed=0.184x elapsed=0:00:09.04    \nframe=   53 fps=5.5 q=51.0 size=       1KiB time=00:00:01.76 bitrate=   2.9kbits/s speed=0.184x elapsed=0:00:09.57    \nframe=   56 fps=5.5 q=52.0 size=       1KiB time=00:00:01.86 bitrate=   2.7kbits/s speed=0.185x elapsed=0:00:10.10    \nframe=   59 fps=5.6 q=50.0 size=       1KiB time=00:00:01.96 bitrate=   2.6kbits/s speed=0.185x elapsed=0:00:10.62    \nframe=   62 fps=5.6 q=51.0 size=       1KiB time=00:00:02.06 bitrate=   2.5kbits/s speed=0.185x elapsed=0:00:11.15    \nframe=   65 fps=5.6 q=52.0 size=       1KiB time=00:00:02.16 bitrate=   2.3kbits/s speed=0.185x elapsed=0:00:11.68    \nframe=   68 fps=5.6 q=55.0 size=       1KiB time=00:00:02.26 bitrate=   2.2kbits/s speed=0.186x elapsed=0:00:12.21    \nframe=   71 fps=5.6 q=54.0 size=       1KiB time=00:00:02.36 bitrate=   2.1kbits/s speed=0.186x elapsed=0:00:12.74    \nframe=   74 fps=5.6 q=55.0 size=       1KiB time=00:00:02.46 bitrate=   2.1kbits/s speed=0.186x elapsed=0:00:13.29    \nframe=   77 fps=5.6 q=54.0 size=       1KiB time=00:00:02.56 bitrate=   2.0kbits/s speed=0.186x elapsed=0:00:13.82    \nframe=   80 fps=5.6 q=53.0 size=       1KiB time=00:00:02.66 bitrate=   1.9kbits/s speed=0.186x elapsed=0:00:14.34    \nframe=   83 fps=5.6 q=53.0 size=       1KiB time=00:00:02.76 bitrate=   1.8kbits/s speed=0.186x elapsed=0:00:14.87    \nframe=   86 fps=5.6 q=55.0 size=       1KiB time=00:00:02.86 bitrate=   1.8kbits/s speed=0.186x elapsed=0:00:15.42    \nframe=   88 fps=5.5 q=55.0 size=       1KiB time=00:00:02.93 bitrate=   1.7kbits/s speed=0.184x elapsed=0:00:15.93    \nframe=   92 fps=5.6 q=55.0 size=       1KiB time=00:00:03.06 bitrate=   1.7kbits/s speed=0.186x elapsed=0:00:16.45    \nframe=   95 fps=5.6 q=47.0 size=       1KiB time=00:00:03.16 bitrate=   1.6kbits/s speed=0.186x elapsed=0:00:16.98    \nframe=   98 fps=5.6 q=54.0 size=       1KiB time=00:00:03.26 bitrate=   1.6kbits/s speed=0.186x elapsed=0:00:17.52    \nframe=  101 fps=5.6 q=47.0 size=       1KiB time=00:00:03.36 bitrate=   1.5kbits/s speed=0.187x elapsed=0:00:18.03    \nframe=  104 fps=5.6 q=54.0 size=       1KiB time=00:00:03.46 bitrate=   1.5kbits/s speed=0.187x elapsed=0:00:18.55    \nframe=  107 fps=5.6 q=47.0 size=       1KiB time=00:00:03.56 bitrate=   1.4kbits/s speed=0.187x elapsed=0:00:19.08    \nframe=  111 fps=5.7 q=55.0 size=       1KiB time=00:00:03.70 bitrate=   1.4kbits/s speed=0.189x elapsed=0:00:19.60    \nframe=  113 fps=5.6 q=46.0 size=       1KiB time=00:00:03.76 bitrate=   1.3kbits/s speed=0.187x elapsed=0:00:20.12    \nframe=  117 fps=5.7 q=54.0 size=       1KiB time=00:00:03.90 bitrate=   1.3kbits/s speed=0.189x elapsed=0:00:20.64    \nframe=  120 fps=5.7 q=53.0 size=       1KiB time=00:00:04.00 bitrate=   1.3kbits/s speed=0.189x elapsed=0:00:21.17    \nframe=  124 fps=5.7 q=53.0 size=       1KiB time=00:00:04.13 bitrate=   1.2kbits/s speed=0.19x elapsed=0:00:21.70    \nframe=  126 fps=5.7 q=52.0 size=       1KiB time=00:00:04.20 bitrate=   1.2kbits/s speed=0.189x elapsed=0:00:22.22    \nframe=  126 fps=5.5 q=52.0 size=       1KiB time=00:00:04.20 bitrate=   1.2kbits/s speed=0.185x elapsed=0:00:22.76    \nframe=  126 fps=5.4 q=52.0 size=       1KiB time=00:00:04.20 bitrate=   1.2kbits/s speed=0.18x elapsed=0:00:23.29    \nframe=  126 fps=5.3 q=52.0 size=       1KiB time=00:00:04.20 bitrate=   1.2kbits/s speed=0.176x elapsed=0:00:23.81    \nframe=  126 fps=5.2 q=52.0 size=       1KiB time=00:00:04.20 bitrate=   1.2kbits/s speed=0.173x elapsed=0:00:24.33    \nframe=  126 fps=5.1 q=52.0 size=       1KiB time=00:00:04.20 bitrate=   1.2kbits/s speed=0.169x elapsed=0:00:24.85    \nframe=  126 fps=5.0 q=52.0 size=       1KiB time=00:00:04.20 bitrate=   1.2kbits/s speed=0.166x elapsed=0:00:25.37    \nframe=  126 fps=4.9 q=52.0 size=       1KiB time=00:00:04.20 bitrate=   1.2kbits/s speed=0.162x elapsed=0:00:25.89    \n[out#0/webm @ 000001c3ffea0b80] video:1954KiB audio:0KiB subtitle:0KiB other streams:0KiB global headers:0KiB muxing overhead: 0.088283%\nframe=  150 fps=5.8 q=57.0 Lsize=    1955KiB time=00:00:05.00 bitrate=3203.4kbits/s speed=0.192x elapsed=0:00:26.00    \n",
  "seconds": 26.387739658355713,
  "probe_out": {}
}